{
  "source": "C:\\Users\\Peter\\Desktop\\stuff\\MIUN\\quantitative_research\\video_compression\\videos\\UVG\\HoneyBee_1920x1080_120fps_420_8bit_YUV.y4m",
  "output": "C:\\Users\\Peter\\Desktop\\stuff\\MIUN\\quantitative_research\\video_compression\\compressed_videos\\UVG\\av1\\1\\HoneyBee_1920x1080_120fps_420_8bit_YUV_av1.mkv",
  "codec": "av1",
  "ok": "[yuv4mpegpipe @ 000002044db95380] Stream #0: not enough frames to estimate rate; consider increasing probesize\nInput #0, yuv4mpegpipe, from 'C:\\Users\\Peter\\Desktop\\stuff\\MIUN\\quantitative_research\\video_compression\\videos\\UVG\\HoneyBee_1920x1080_120fps_420_8bit_YUV.y4m':\n  Duration: 00:00:05.00, start: 0.000000, bitrate: 2985989 kb/s\n  Stream #0:0: Video: rawvideo (I420 / 0x30323449), yuv420p(progressive), 1920x1080, 120 fps, 120 tbr, 120 tbn\n[out#0/matroska @ 000002044db990c0] Codec AVOption b:a (set bitrate (in bits/s)) has not been used for any stream. The most likely reason is either wrong type (e.g. a video option with no video streams) or that it is a private option of some decoder which was not actually used for any stream.\nStream mapping:\n  Stream #0:0 -> #0:0 (rawvideo (native) -> av1 (libsvtav1))\nPress [q] to stop, [?] for help\nSvt[info]: -------------------------------------------\nSvt[info]: SVT [version]:\tSVT-AV1 Encoder Lib v3.1.0-19-g6ecfe8ec\nSvt[info]: SVT [build]  :\tGCC 15.2.0\t 64 bit\nSvt[info]: LIB Build date: Aug 17 2025 11:37:13\nSvt[info]: -------------------------------------------\n[libsvtav1 @ 000002044db9c1c0] Specified chroma sample location center is unsupported on the AV1 bit stream level. Usage of a container that allows passing this information - such as Matroska - is recommended.\nSvt[info]: Level of Parallelism: 5\nSvt[info]: Number of PPCS 93\nSvt[info]: [asm level on system : up to avx2]\nSvt[info]: [asm level selected : up to avx2]\nSvt[info]: -------------------------------------------\nSvt[info]: SVT [config]: main profile\ttier (auto)\tlevel (auto)\nSvt[info]: SVT [config]: width / height / fps numerator / fps denominator \t\t: 1920 / 1080 / 120 / 1\nSvt[info]: SVT [config]: bit-depth / color format \t\t\t\t\t: 8 / YUV420\nSvt[info]: SVT [config]: preset / tune / pred struct \t\t\t\t\t: 4 / PSNR / random access\nSvt[info]: SVT [config]: gop size / mini-gop size / key-frame type \t\t\t: 641 / 16 / key frame\nSvt[info]: SVT [config]: BRC mode / target bitrate (kbps)\t\t\t\t: VBR / 1000 \nSvt[info]: SVT [config]: AQ mode / Variance Boost \t\t\t\t\t: 2 / 0\nSvt[info]: SVT [config]: sharpness / luminance-based QP bias \t\t\t\t: 0 / 0\nSvt[info]: SVT [config]: QP scale compress strength \t\t\t\t\t: 0\nSvt[info]: -------------------------------------------\nOutput #0, matroska, to 'C:\\Users\\Peter\\Desktop\\stuff\\MIUN\\quantitative_research\\video_compression\\compressed_videos\\UVG\\av1\\1\\HoneyBee_1920x1080_120fps_420_8bit_YUV_av1.mkv':\n  Metadata:\n    encoder         : Lavf62.3.100\n  Stream #0:0: Video: av1 (AV01 / 0x31305641), yuv420p(tv, progressive), 1920x1080, q=2-31, 1000 kb/s, 120 fps, 1k tbn\n    Metadata:\n      encoder         : Lavc62.11.100 libsvtav1\n    Side data:\n      cpb: bitrate max/min/avg: 0/0/1000000 buffer size: 1000000 vbv_delay: N/A\nframe=    0 fps=0.0 q=0.0 size=       0KiB time=N/A bitrate=N/A speed=N/A elapsed=0:00:02.77    \nframe=    0 fps=0.0 q=0.0 size=       0KiB time=N/A bitrate=N/A speed=N/A elapsed=0:00:03.33    \nframe=    0 fps=0.0 q=0.0 size=       0KiB time=N/A bitrate=N/A speed=N/A elapsed=0:00:03.89    \nframe=    0 fps=0.0 q=0.0 size=       0KiB time=N/A bitrate=N/A speed=N/A elapsed=0:00:04.45    \nframe=    0 fps=0.0 q=0.0 size=       0KiB time=N/A bitrate=N/A speed=N/A elapsed=0:00:05.01    \nframe=    0 fps=0.0 q=0.0 size=       0KiB time=N/A bitrate=N/A speed=N/A elapsed=0:00:05.57    \nframe=    0 fps=0.0 q=0.0 size=       0KiB time=N/A bitrate=N/A speed=N/A elapsed=0:00:06.13    \nframe=    0 fps=0.0 q=0.0 size=       0KiB time=N/A bitrate=N/A speed=N/A elapsed=0:00:06.68    \nframe=    0 fps=0.0 q=0.0 size=       0KiB time=N/A bitrate=N/A speed=N/A elapsed=0:00:07.24    \nframe=    0 fps=0.0 q=0.0 size=       0KiB time=N/A bitrate=N/A speed=N/A elapsed=0:00:07.80    \nframe=    0 fps=0.0 q=0.0 size=       0KiB time=N/A bitrate=N/A speed=N/A elapsed=0:00:08.36    \nframe=    0 fps=0.0 q=0.0 size=       0KiB time=N/A bitrate=N/A speed=N/A elapsed=0:00:08.92    \nframe=    0 fps=0.0 q=0.0 size=       0KiB time=N/A bitrate=N/A speed=N/A elapsed=0:00:09.46    \nframe=    0 fps=0.0 q=0.0 size=       0KiB time=N/A bitrate=N/A speed=N/A elapsed=0:00:10.02    \nframe=    0 fps=0.0 q=0.0 size=       0KiB time=N/A bitrate=N/A speed=N/A elapsed=0:00:10.58    \nframe=    0 fps=0.0 q=0.0 size=       0KiB time=N/A bitrate=N/A speed=N/A elapsed=0:00:11.12    \nframe=    0 fps=0.0 q=0.0 size=       0KiB time=N/A bitrate=N/A speed=N/A elapsed=0:00:11.69    \nframe=    0 fps=0.0 q=0.0 size=       0KiB time=N/A bitrate=N/A speed=N/A elapsed=0:00:12.28    \nframe=    0 fps=0.0 q=0.0 size=       0KiB time=N/A bitrate=N/A speed=N/A elapsed=0:00:12.84    \nframe=    0 fps=0.0 q=0.0 size=       0KiB time=N/A bitrate=N/A speed=N/A elapsed=0:00:13.42    \nframe=    0 fps=0.0 q=0.0 size=       0KiB time=N/A bitrate=N/A speed=N/A elapsed=0:00:13.98    \nframe=    0 fps=0.0 q=0.0 size=       0KiB time=N/A bitrate=N/A speed=N/A elapsed=0:00:14.55    \nframe=    0 fps=0.0 q=0.0 size=       0KiB time=N/A bitrate=N/A speed=N/A elapsed=0:00:15.12    \nframe=    0 fps=0.0 q=0.0 size=       0KiB time=N/A bitrate=N/A speed=N/A elapsed=0:00:15.69    \nframe=    1 fps=0.1 q=30.0 size=       1KiB time=00:00:00.00 bitrate=N/A speed=   0x elapsed=0:00:16.25    \nframe=    1 fps=0.1 q=30.0 size=       1KiB time=00:00:00.00 bitrate=N/A speed=   0x elapsed=0:00:16.82    \nframe=    1 fps=0.1 q=30.0 size=       1KiB time=00:00:00.00 bitrate=N/A speed=   0x elapsed=0:00:17.39    \nframe=    4 fps=0.2 q=61.0 size=       1KiB time=00:00:00.02 bitrate= 179.2kbits/s speed=0.00139x elapsed=0:00:17.96    \nframe=    8 fps=0.4 q=57.0 size=       1KiB time=00:00:00.05 bitrate=  76.8kbits/s speed=0.00315x elapsed=0:00:18.53    \nframe=   11 fps=0.6 q=55.0 size=       1KiB time=00:00:00.08 bitrate=  53.8kbits/s speed=0.00436x elapsed=0:00:19.10    \nframe=   14 fps=0.7 q=54.0 size=       1KiB time=00:00:00.10 bitrate=  41.4kbits/s speed=0.0055x elapsed=0:00:19.69    \nframe=   17 fps=0.8 q=46.0 size=       1KiB time=00:00:00.13 bitrate=  33.6kbits/s speed=0.00658x elapsed=0:00:20.26    \nframe=   19 fps=0.9 q=50.0 size=       1KiB time=00:00:00.15 bitrate=  29.9kbits/s speed=0.0072x elapsed=0:00:20.84    \nframe=   22 fps=1.0 q=50.0 size=       1KiB time=00:00:00.17 bitrate=  25.6kbits/s speed=0.00817x elapsed=0:00:21.42    \nframe=   25 fps=1.1 q=47.0 size=       1KiB time=00:00:00.19 bitrate=  23.4kbits/s speed=0.00872x elapsed=0:00:21.98    \nframe=   29 fps=1.3 q=48.0 size=       1KiB time=00:00:00.22 bitrate=  19.9kbits/s speed=0.00997x elapsed=0:00:22.56    \nframe=   32 fps=1.4 q=46.0 size=       1KiB time=00:00:00.25 bitrate=  17.3kbits/s speed=0.0111x elapsed=0:00:23.17    \nframe=   34 fps=1.4 q=43.0 size=       1KiB time=00:00:00.27 bitrate=  16.3kbits/s speed=0.0116x elapsed=0:00:23.77    \nframe=   36 fps=1.5 q=43.0 size=       1KiB time=00:00:00.29 bitrate=  15.4kbits/s speed=0.012x elapsed=0:00:24.37    \nframe=   38 fps=1.5 q=42.0 size=       1KiB time=00:00:00.30 bitrate=  14.5kbits/s speed=0.0124x elapsed=0:00:24.95    \nframe=   40 fps=1.6 q=42.0 size=       1KiB time=00:00:00.32 bitrate=  13.8kbits/s speed=0.0127x elapsed=0:00:25.51    \nframe=   43 fps=1.6 q=40.0 size=       1KiB time=00:00:00.35 bitrate=  12.8kbits/s speed=0.0134x elapsed=0:00:26.06    \nframe=   47 fps=1.8 q=40.0 size=       1KiB time=00:00:00.38 bitrate=  11.7kbits/s speed=0.0144x elapsed=0:00:26.62    \nframe=   49 fps=1.8 q=33.0 size=       1KiB time=00:00:00.40 bitrate=  11.2kbits/s speed=0.0147x elapsed=0:00:27.19    \nframe=   51 fps=1.8 q=37.0 size=       1KiB time=00:00:00.41 bitrate=  10.8kbits/s speed=0.015x elapsed=0:00:27.75    \nframe=   53 fps=1.9 q=37.0 size=       1KiB time=00:00:00.43 bitrate=  10.3kbits/s speed=0.0153x elapsed=0:00:28.34    \nframe=   55 fps=1.9 q=37.0 size=       1KiB time=00:00:00.45 bitrate=  10.0kbits/s speed=0.0155x elapsed=0:00:28.94    \nframe=   56 fps=1.9 q=37.0 size=       1KiB time=00:00:00.45 bitrate=   9.8kbits/s speed=0.0155x elapsed=0:00:29.58    \nframe=   59 fps=2.0 q=37.0 size=       1KiB time=00:00:00.48 bitrate=   9.3kbits/s speed=0.016x elapsed=0:00:30.19    \nframe=   60 fps=2.0 q=37.0 size=       1KiB time=00:00:00.49 bitrate=   9.1kbits/s speed=0.016x elapsed=0:00:30.76    \nframe=   63 fps=2.0 q=35.0 size=       1KiB time=00:00:00.51 bitrate=   8.7kbits/s speed=0.0165x elapsed=0:00:31.35    \nframe=   66 fps=2.1 q=37.0 size=       1KiB time=00:00:00.53 bitrate=   8.4kbits/s speed=0.0167x elapsed=0:00:31.93    \nframe=   67 fps=2.1 q=36.0 size=       1KiB time=00:00:00.55 bitrate=   8.1kbits/s speed=0.0169x elapsed=0:00:32.51    \nframe=   69 fps=2.1 q=35.0 size=       1KiB time=00:00:00.56 bitrate=   7.9kbits/s speed=0.0171x elapsed=0:00:33.07    \nframe=   69 fps=2.1 q=35.0 size=       1KiB time=00:00:00.56 bitrate=   7.9kbits/s speed=0.0169x elapsed=0:00:33.62    \nframe=   71 fps=2.1 q=36.0 size=       1KiB time=00:00:00.58 bitrate=   7.7kbits/s speed=0.017x elapsed=0:00:34.21    \nframe=   73 fps=2.1 q=33.0 size=       1KiB time=00:00:00.60 bitrate=   7.5kbits/s speed=0.0172x elapsed=0:00:34.79    \nframe=   75 fps=2.1 q=36.0 size=       1KiB time=00:00:00.61 bitrate=   7.3kbits/s speed=0.0174x elapsed=0:00:35.37    \nframe=   76 fps=2.1 q=37.0 size=       1KiB time=00:00:00.62 bitrate=   7.2kbits/s speed=0.0174x elapsed=0:00:35.95    \nframe=   79 fps=2.2 q=35.0 size=       1KiB time=00:00:00.64 bitrate=   7.0kbits/s speed=0.0176x elapsed=0:00:36.53    \nframe=   79 fps=2.1 q=35.0 size=       1KiB time=00:00:00.65 bitrate=   6.9kbits/s speed=0.0175x elapsed=0:00:37.08    \nframe=   82 fps=2.2 q=37.0 size=       1KiB time=00:00:00.67 bitrate=   6.6kbits/s speed=0.0179x elapsed=0:00:37.64    \nframe=   85 fps=2.2 q=35.0 size=       1KiB time=00:00:00.70 bitrate=   6.4kbits/s speed=0.0183x elapsed=0:00:38.22    \nframe=   86 fps=2.2 q=37.0 size=       1KiB time=00:00:00.70 bitrate=   6.3kbits/s speed=0.0183x elapsed=0:00:38.78    \nframe=   88 fps=2.2 q=37.0 size=       1KiB time=00:00:00.72 bitrate=   6.2kbits/s speed=0.0184x elapsed=0:00:39.34    \nframe=   91 fps=2.3 q=36.0 size=       1KiB time=00:00:00.74 bitrate=   6.0kbits/s speed=0.0186x elapsed=0:00:39.92    \nframe=   93 fps=2.3 q=35.0 size=       1KiB time=00:00:00.76 bitrate=   5.8kbits/s speed=0.0189x elapsed=0:00:40.49    \nframe=   95 fps=2.3 q=32.0 size=       1KiB time=00:00:00.78 bitrate=   5.7kbits/s speed=0.0191x elapsed=0:00:41.05    \nframe=   98 fps=2.4 q=37.0 size=       1KiB time=00:00:00.80 bitrate=   5.5kbits/s speed=0.0194x elapsed=0:00:41.62    \nframe=  101 fps=2.4 q=35.0 size=       1KiB time=00:00:00.83 bitrate=   5.4kbits/s speed=0.0198x elapsed=0:00:42.18    \nframe=  102 fps=2.4 q=37.0 size=       1KiB time=00:00:00.84 bitrate=   5.3kbits/s speed=0.0197x elapsed=0:00:42.73    \nframe=  103 fps=2.4 q=36.0 size=       1KiB time=00:00:00.85 bitrate=   5.3kbits/s speed=0.0196x elapsed=0:00:43.32    \nframe=  105 fps=2.4 q=32.0 size=       1KiB time=00:00:00.86 bitrate=   5.2kbits/s speed=0.0197x elapsed=0:00:43.93    \nframe=  107 fps=2.4 q=36.0 size=       1KiB time=00:00:00.88 bitrate=   5.1kbits/s speed=0.0198x elapsed=0:00:44.51    \nframe=  109 fps=2.4 q=35.0 size=       1KiB time=00:00:00.90 bitrate=   5.0kbits/s speed=0.02x elapsed=0:00:45.08    \nframe=  110 fps=2.4 q=37.0 size=       1KiB time=00:00:00.90 bitrate=   4.9kbits/s speed=0.0199x elapsed=0:00:45.66    \nframe=  110 fps=2.4 q=37.0 size=       1KiB time=00:00:00.90 bitrate=   4.9kbits/s speed=0.0197x elapsed=0:00:46.22    \nframe=  113 fps=2.4 q=27.0 size=       1KiB time=00:00:00.93 bitrate=   4.8kbits/s speed=0.0199x elapsed=0:00:46.80    \nframe=  115 fps=2.4 q=36.0 size=       1KiB time=00:00:00.94 bitrate=   4.8kbits/s speed=0.0199x elapsed=0:00:47.38    \nframe=  117 fps=2.4 q=34.0 size=       1KiB time=00:00:00.96 bitrate=   4.6kbits/s speed=0.0201x elapsed=0:00:47.98    \nframe=  118 fps=2.4 q=37.0 size=       1KiB time=00:00:00.97 bitrate=   4.6kbits/s speed=0.0201x elapsed=0:00:48.56    \nframe=  121 fps=2.5 q=31.0 size=       1KiB time=00:00:01.00 bitrate=   4.5kbits/s speed=0.0203x elapsed=0:00:49.14    \nframe=  123 fps=2.5 q=36.0 size=       1KiB time=00:00:01.01 bitrate=   4.4kbits/s speed=0.0205x elapsed=0:00:49.70    \nframe=  125 fps=2.5 q=34.0 size=       1KiB time=00:00:01.02 bitrate=   4.4kbits/s speed=0.0204x elapsed=0:00:50.26    \nframe=  125 fps=2.5 q=34.0 size=       1KiB time=00:00:01.03 bitrate=   4.3kbits/s speed=0.0203x elapsed=0:00:50.85    \nframe=  126 fps=2.4 q=37.0 size=       1KiB time=00:00:01.04 bitrate=   4.3kbits/s speed=0.0203x elapsed=0:00:51.42    \nframe=  128 fps=2.5 q=37.0 size=       1KiB time=00:00:01.05 bitrate=   4.2kbits/s speed=0.0203x elapsed=0:00:52.01    \nframe=  130 fps=2.5 q=37.0 size=       1KiB time=00:00:01.07 bitrate=   4.2kbits/s speed=0.0204x elapsed=0:00:52.62    \nframe=  133 fps=2.5 q=34.0 size=       1KiB time=00:00:01.10 bitrate=   4.1kbits/s speed=0.0207x elapsed=0:00:53.20    \nframe=  136 fps=2.5 q=37.0 size=       1KiB time=00:00:01.11 bitrate=   4.0kbits/s speed=0.0208x elapsed=0:00:53.76    \nframe=  139 fps=2.6 q=36.0 size=       1KiB time=00:00:01.14 bitrate=   3.9kbits/s speed=0.021x elapsed=0:00:54.34    \nframe=  141 fps=2.6 q=34.0 size=       1KiB time=00:00:01.16 bitrate=   3.8kbits/s speed=0.0212x elapsed=0:00:54.96    \nframe=  142 fps=2.6 q=37.0 size=       1KiB time=00:00:01.17 bitrate=   3.8kbits/s speed=0.0211x elapsed=0:00:55.57    \nframe=  144 fps=2.6 q=37.0 size=       1KiB time=00:00:01.19 bitrate=   3.8kbits/s speed=0.0212x elapsed=0:00:56.17    \nframe=  147 fps=2.6 q=36.0 size=       1KiB time=00:00:01.20 bitrate=   3.7kbits/s speed=0.0213x elapsed=0:00:56.75    \nframe=  150 fps=2.6 q=37.0 size=       1KiB time=00:00:01.24 bitrate=   3.6kbits/s speed=0.0217x elapsed=0:00:57.31    \nframe=  154 fps=2.7 q=37.0 size=       1KiB time=00:00:01.27 bitrate=   3.5kbits/s speed=0.022x elapsed=0:00:57.89    \nframe=  156 fps=2.7 q=37.0 size=       1KiB time=00:00:01.29 bitrate=   3.5kbits/s speed=0.0221x elapsed=0:00:58.45    \nframe=  156 fps=2.6 q=37.0 size=       1KiB time=00:00:01.29 bitrate=   3.5kbits/s speed=0.0219x elapsed=0:00:59.02    \nframe=  156 fps=2.6 q=37.0 size=       1KiB time=00:00:01.29 bitrate=   3.5kbits/s speed=0.0217x elapsed=0:00:59.58    \nframe=  156 fps=2.6 q=37.0 size=       1KiB time=00:00:01.29 bitrate=   3.5kbits/s speed=0.0215x elapsed=0:01:00.16    \nframe=  157 fps=2.6 q=35.0 size=       1KiB time=00:00:01.30 bitrate=   3.4kbits/s speed=0.0214x elapsed=0:01:00.73    \nframe=  158 fps=2.6 q=37.0 size=       1KiB time=00:00:01.30 bitrate=   3.4kbits/s speed=0.0213x elapsed=0:01:01.28    \nframe=  161 fps=2.6 q=29.0 size=       1KiB time=00:00:01.33 bitrate=   3.4kbits/s speed=0.0216x elapsed=0:01:01.85    \nframe=  164 fps=2.6 q=37.0 size=       1KiB time=00:00:01.35 bitrate=   3.3kbits/s speed=0.0218x elapsed=0:01:02.40    \nframe=  167 fps=2.7 q=36.0 size=       1KiB time=00:00:01.38 bitrate=   3.2kbits/s speed=0.022x elapsed=0:01:02.95    \nframe=  172 fps=2.7 q=37.0 size=       1KiB time=00:00:01.42 bitrate=   3.1kbits/s speed=0.0224x elapsed=0:01:03.51    \nframe=  174 fps=2.7 q=37.0 size=       1KiB time=00:00:01.43 bitrate=   3.1kbits/s speed=0.0224x elapsed=0:01:04.06    \nframe=  175 fps=2.7 q=36.0 size=       1KiB time=00:00:01.45 bitrate=   3.1kbits/s speed=0.0224x elapsed=0:01:04.60    \nframe=  178 fps=2.7 q=37.0 size=       1KiB time=00:00:01.47 bitrate=   3.0kbits/s speed=0.0226x elapsed=0:01:05.18    \nframe=  180 fps=2.7 q=37.0 size=       1KiB time=00:00:01.49 bitrate=   3.0kbits/s speed=0.0227x elapsed=0:01:05.77    \nframe=  182 fps=2.7 q=37.0 size=       1KiB time=00:00:01.50 bitrate=   3.0kbits/s speed=0.0227x elapsed=0:01:06.34    \nframe=  184 fps=2.8 q=37.0 size=       1KiB time=00:00:01.52 bitrate=   2.9kbits/s speed=0.0228x elapsed=0:01:06.90    \nframe=  188 fps=2.8 q=37.0 size=       1KiB time=00:00:01.55 bitrate=   2.9kbits/s speed=0.0231x elapsed=0:01:07.47    \nframe=  191 fps=2.8 q=32.0 size=       1KiB time=00:00:01.58 bitrate=   2.8kbits/s speed=0.0233x elapsed=0:01:08.02    \nframe=  194 fps=2.8 q=37.0 size=       1KiB time=00:00:01.60 bitrate=   2.8kbits/s speed=0.0234x elapsed=0:01:08.59    \nframe=  196 fps=2.8 q=37.0 size=       1KiB time=00:00:01.62 bitrate=   2.8kbits/s speed=0.0235x elapsed=0:01:09.15    \nframe=  198 fps=2.8 q=37.0 size=       1KiB time=00:00:01.64 bitrate=   2.7kbits/s speed=0.0235x elapsed=0:01:09.72    \nframe=  201 fps=2.9 q=32.0 size=       1KiB time=00:00:01.66 bitrate=   2.7kbits/s speed=0.0237x elapsed=0:01:10.28    \nframe=  205 fps=2.9 q=35.0 size=       1KiB time=00:00:01.70 bitrate=   2.6kbits/s speed=0.024x elapsed=0:01:10.84    \nframe=  205 fps=2.9 q=35.0 size=       1KiB time=00:00:01.70 bitrate=   2.6kbits/s speed=0.0238x elapsed=0:01:11.40    \nframe=  206 fps=2.9 q=37.0 size=       1KiB time=00:00:01.70 bitrate=   2.6kbits/s speed=0.0237x elapsed=0:01:11.96    \nframe=  210 fps=2.9 q=37.0 size=       1KiB time=00:00:01.74 bitrate=   2.6kbits/s speed=0.024x elapsed=0:01:12.53    \nframe=  213 fps=2.9 q=34.0 size=       1KiB time=00:00:01.76 bitrate=   2.5kbits/s speed=0.0242x elapsed=0:01:13.09    \nframe=  214 fps=2.9 q=37.0 size=       1KiB time=00:00:01.77 bitrate=   2.5kbits/s speed=0.0241x elapsed=0:01:13.65    \nframe=  217 fps=2.9 q=31.0 size=       1KiB time=00:00:01.80 bitrate=   2.5kbits/s speed=0.0242x elapsed=0:01:14.24    \nframe=  219 fps=2.9 q=36.0 size=       1KiB time=00:00:01.81 bitrate=   2.5kbits/s speed=0.0243x elapsed=0:01:14.83    \nframe=  220 fps=2.9 q=37.0 size=       1KiB time=00:00:01.82 bitrate=   2.5kbits/s speed=0.0242x elapsed=0:01:15.41    \nframe=  220 fps=2.9 q=37.0 size=       1KiB time=00:00:01.82 bitrate=   2.5kbits/s speed=0.024x elapsed=0:01:15.97    \nframe=  221 fps=2.9 q=34.0 size=       1KiB time=00:00:01.82 bitrate=   2.5kbits/s speed=0.0238x elapsed=0:01:16.55    \nframe=  221 fps=2.9 q=34.0 size=       1KiB time=00:00:01.83 bitrate=   2.4kbits/s speed=0.0238x elapsed=0:01:17.10    \nframe=  223 fps=2.9 q=36.0 size=       1KiB time=00:00:01.84 bitrate=   2.4kbits/s speed=0.0237x elapsed=0:01:17.66    \nframe=  226 fps=2.9 q=37.0 size=       1KiB time=00:00:01.87 bitrate=   2.4kbits/s speed=0.024x elapsed=0:01:18.23    \nframe=  229 fps=2.9 q=34.0 size=       1KiB time=00:00:01.89 bitrate=   2.4kbits/s speed=0.024x elapsed=0:01:18.80    \nframe=  230 fps=2.9 q=37.0 size=       1KiB time=00:00:01.90 bitrate=   2.3kbits/s speed=0.024x elapsed=0:01:19.38    \nframe=  233 fps=2.9 q=30.0 size=       1KiB time=00:00:01.93 bitrate=   2.3kbits/s speed=0.0242x elapsed=0:01:19.96    \nframe=  237 fps=2.9 q=34.0 size=       1KiB time=00:00:01.95 bitrate=   2.3kbits/s speed=0.0243x elapsed=0:01:20.59    \nframe=  238 fps=2.9 q=37.0 size=       1KiB time=00:00:01.97 bitrate=   2.3kbits/s speed=0.0243x elapsed=0:01:21.16    \nframe=  240 fps=2.9 q=37.0 size=       1KiB time=00:00:01.98 bitrate=   2.3kbits/s speed=0.0243x elapsed=0:01:21.73    \nframe=  242 fps=2.9 q=37.0 size=       1KiB time=00:00:02.00 bitrate=   2.2kbits/s speed=0.0244x elapsed=0:01:22.31    \nframe=  245 fps=3.0 q=35.0 size=       1KiB time=00:00:02.03 bitrate=   2.2kbits/s speed=0.0245x elapsed=0:01:22.89    \nframe=  246 fps=2.9 q=37.0 size=       1KiB time=00:00:02.04 bitrate=   2.2kbits/s speed=0.0245x elapsed=0:01:23.48    \nframe=  249 fps=3.0 q=32.0 size=       1KiB time=00:00:02.06 bitrate=   2.2kbits/s speed=0.0246x elapsed=0:01:24.07    \nframe=  252 fps=3.0 q=37.0 size=       1KiB time=00:00:02.09 bitrate=   2.1kbits/s speed=0.0247x elapsed=0:01:24.64    \nframe=  253 fps=3.0 q=35.0 size=       1KiB time=00:00:02.10 bitrate=   2.1kbits/s speed=0.0246x elapsed=0:01:25.24    \nframe=  254 fps=3.0 q=37.0 size=       1KiB time=00:00:02.10 bitrate=   2.1kbits/s speed=0.0246x elapsed=0:01:25.80    \nframe=  257 fps=3.0 q=27.0 size=       1KiB time=00:00:02.13 bitrate=   2.1kbits/s speed=0.0247x elapsed=0:01:26.36    \nframe=  260 fps=3.0 q=37.0 size=       1KiB time=00:00:02.15 bitrate=   2.1kbits/s speed=0.0248x elapsed=0:01:26.92    \nframe=  262 fps=3.0 q=37.0 size=       1KiB time=00:00:02.17 bitrate=   2.1kbits/s speed=0.0249x elapsed=0:01:27.51    \nframe=  264 fps=3.0 q=37.0 size=       1KiB time=00:00:02.19 bitrate=   2.0kbits/s speed=0.0249x elapsed=0:01:28.08    \nframe=  268 fps=3.0 q=37.0 size=       1KiB time=00:00:02.22 bitrate=   2.0kbits/s speed=0.0251x elapsed=0:01:28.66    \nframe=  270 fps=3.0 q=37.0 size=       1KiB time=00:00:02.24 bitrate=   2.0kbits/s speed=0.0251x elapsed=0:01:29.22    \nframe=  274 fps=3.1 q=37.0 size=       1KiB time=00:00:02.27 bitrate=   2.0kbits/s speed=0.0253x elapsed=0:01:29.77    \nframe=  278 fps=3.1 q=37.0 size=       1KiB time=00:00:02.30 bitrate=   1.9kbits/s speed=0.0256x elapsed=0:01:30.33    \nframe=  279 fps=3.1 q=36.0 size=       1KiB time=00:00:02.31 bitrate=   1.9kbits/s speed=0.0255x elapsed=0:01:30.89    \nframe=  283 fps=3.1 q=36.0 size=       1KiB time=00:00:02.35 bitrate=   1.9kbits/s speed=0.0257x elapsed=0:01:31.45    \nframe=  286 fps=3.1 q=37.0 size=       1KiB time=00:00:02.37 bitrate=   1.9kbits/s speed=0.0258x elapsed=0:01:32.02    \nframe=  292 fps=3.2 q=37.0 size=       1KiB time=00:00:02.41 bitrate=   1.9kbits/s speed=0.0261x elapsed=0:01:32.58    \nframe=  295 fps=3.2 q=37.0 size=       1KiB time=00:00:02.45 bitrate=   1.8kbits/s speed=0.0263x elapsed=0:01:33.13    \nframe=  297 fps=3.2 q=35.0 size=       1KiB time=00:00:02.45 bitrate=   1.8kbits/s speed=0.0262x elapsed=0:01:33.68    \nframe=  299 fps=3.2 q=35.0 size=       1KiB time=00:00:02.48 bitrate=   1.8kbits/s speed=0.0263x elapsed=0:01:34.24    \nframe=  302 fps=3.2 q=36.0 size=       1KiB time=00:00:02.50 bitrate=   1.8kbits/s speed=0.0264x elapsed=0:01:34.79    \nframe=  306 fps=3.2 q=37.0 size=       1KiB time=00:00:02.54 bitrate=   1.8kbits/s speed=0.0267x elapsed=0:01:35.35    \nframe=  308 fps=3.2 q=33.0 size=       1KiB time=00:00:02.55 bitrate=   1.8kbits/s speed=0.0266x elapsed=0:01:35.90    \nframe=  310 fps=3.2 q=35.0 size=       1KiB time=00:00:02.57 bitrate=   1.7kbits/s speed=0.0267x elapsed=0:01:36.45    \nframe=  311 fps=3.2 q=33.0 size=       1KiB time=00:00:02.58 bitrate=   1.7kbits/s speed=0.0266x elapsed=0:01:37.01    \nframe=  313 fps=3.2 q=33.0 size=       1KiB time=00:00:02.60 bitrate=   1.7kbits/s speed=0.0266x elapsed=0:01:37.61    \nframe=  315 fps=3.2 q=35.0 size=       1KiB time=00:00:02.61 bitrate=   1.7kbits/s speed=0.0267x elapsed=0:01:38.17    \nframe=  318 fps=3.2 q=36.0 size=       1KiB time=00:00:02.63 bitrate=   1.7kbits/s speed=0.0267x elapsed=0:01:38.76    \nframe=  321 fps=3.2 q=29.0 size=       1KiB time=00:00:02.66 bitrate=   1.7kbits/s speed=0.0268x elapsed=0:01:39.33    \nframe=  324 fps=3.2 q=37.0 size=       1KiB time=00:00:02.68 bitrate=   1.7kbits/s speed=0.0269x elapsed=0:01:39.89    \nframe=  326 fps=3.2 q=37.0 size=       1KiB time=00:00:02.70 bitrate=   1.7kbits/s speed=0.027x elapsed=0:01:40.44    \nframe=  327 fps=3.2 q=36.0 size=       1KiB time=00:00:02.71 bitrate=   1.6kbits/s speed=0.0269x elapsed=0:01:40.99    \nframe=  330 fps=3.2 q=36.0 size=       1KiB time=00:00:02.74 bitrate=   1.6kbits/s speed=0.027x elapsed=0:01:41.57    \nframe=  332 fps=3.3 q=35.0 size=       1KiB time=00:00:02.75 bitrate=   1.6kbits/s speed=0.027x elapsed=0:01:42.13    \nframe=  336 fps=3.3 q=36.0 size=       1KiB time=00:00:02.78 bitrate=   1.6kbits/s speed=0.0271x elapsed=0:01:42.70    \nframe=  339 fps=3.3 q=36.0 size=       1KiB time=00:00:02.80 bitrate=   1.6kbits/s speed=0.0272x elapsed=0:01:43.26    \nframe=  341 fps=3.3 q=35.0 size=       1KiB time=00:00:02.83 bitrate=   1.6kbits/s speed=0.0273x elapsed=0:01:43.82    \nframe=  344 fps=3.3 q=37.0 size=       1KiB time=00:00:02.85 bitrate=   1.6kbits/s speed=0.0274x elapsed=0:01:44.40    \nframe=  348 fps=3.3 q=37.0 size=       1KiB time=00:00:02.88 bitrate=   1.6kbits/s speed=0.0275x elapsed=0:01:44.96    \nframe=  351 fps=3.3 q=32.0 size=       1KiB time=00:00:02.91 bitrate=   1.5kbits/s speed=0.0276x elapsed=0:01:45.54    \nframe=  353 fps=3.3 q=28.0 size=       1KiB time=00:00:02.93 bitrate=   1.5kbits/s speed=0.0276x elapsed=0:01:46.10    \nframe=  355 fps=3.3 q=36.0 size=       1KiB time=00:00:02.95 bitrate=   1.5kbits/s speed=0.0276x elapsed=0:01:46.69    \nframe=  357 fps=3.3 q=35.0 size=       1KiB time=00:00:02.96 bitrate=   1.5kbits/s speed=0.0277x elapsed=0:01:47.29    \nframe=  359 fps=3.3 q=36.0 size=       1KiB time=00:00:02.97 bitrate=   1.5kbits/s speed=0.0276x elapsed=0:01:47.87    \nframe=  360 fps=3.3 q=37.0 size=       1KiB time=00:00:02.98 bitrate=   1.5kbits/s speed=0.0275x elapsed=0:01:48.44    \nframe=  363 fps=3.3 q=36.0 size=       1KiB time=00:00:03.01 bitrate=   1.5kbits/s speed=0.0277x elapsed=0:01:49.02    \nframe=  365 fps=3.3 q=34.0 size=       1KiB time=00:00:03.03 bitrate=   1.5kbits/s speed=0.0277x elapsed=0:01:49.62    \nframe=  369 fps=3.3 q=27.0 size=       1KiB time=00:00:03.06 bitrate=   1.5kbits/s speed=0.0278x elapsed=0:01:50.21    \nframe=  372 fps=3.4 q=37.0 size=       1KiB time=00:00:03.09 bitrate=   1.4kbits/s speed=0.0279x elapsed=0:01:50.78    \nframe=  374 fps=3.4 q=37.0 size=       1KiB time=00:00:03.10 bitrate=   1.4kbits/s speed=0.0279x elapsed=0:01:51.35    \nframe=  377 fps=3.4 q=34.0 size=       1KiB time=00:00:03.13 bitrate=   1.4kbits/s speed=0.028x elapsed=0:01:51.91    \nframe=  380 fps=3.4 q=37.0 size=       1KiB time=00:00:03.15 bitrate=   1.4kbits/s speed=0.0281x elapsed=0:01:52.48    \nframe=  383 fps=3.4 q=35.0 size=       1KiB time=00:00:03.18 bitrate=   1.4kbits/s speed=0.0282x elapsed=0:01:53.05    \nframe=  387 fps=3.4 q=36.0 size=       1KiB time=00:00:03.21 bitrate=   1.4kbits/s speed=0.0283x elapsed=0:01:53.60    \nframe=  389 fps=3.4 q=35.0 size=       1KiB time=00:00:03.23 bitrate=   1.4kbits/s speed=0.0283x elapsed=0:01:54.14    \nframe=  391 fps=3.4 q=34.0 size=       1KiB time=00:00:03.25 bitrate=   1.4kbits/s speed=0.0283x elapsed=0:01:54.67    \nframe=  395 fps=3.4 q=36.0 size=       1KiB time=00:00:03.28 bitrate=   1.4kbits/s speed=0.0285x elapsed=0:01:55.21    \nframe=  399 fps=3.4 q=36.0 size=       1KiB time=00:00:03.31 bitrate=   1.4kbits/s speed=0.0287x elapsed=0:01:55.75    \nframe=  402 fps=3.5 q=37.0 size=       1KiB time=00:00:03.34 bitrate=   1.3kbits/s speed=0.0287x elapsed=0:01:56.30    \nframe=  406 fps=3.5 q=37.0 size=       1KiB time=00:00:03.37 bitrate=   1.3kbits/s speed=0.0289x elapsed=0:01:56.86    \nframe=  410 fps=3.5 q=37.0 size=       1KiB time=00:00:03.40 bitrate=   1.3kbits/s speed=0.029x elapsed=0:01:57.40    \nframe=  412 fps=3.5 q=35.0 size=       1KiB time=00:00:03.42 bitrate=   1.3kbits/s speed=0.029x elapsed=0:01:57.94    \nframe=  417 fps=3.5 q=30.0 size=       1KiB time=00:00:03.46 bitrate=   1.3kbits/s speed=0.0292x elapsed=0:01:58.53    \nframe=  419 fps=3.5 q=36.0 size=       1KiB time=00:00:03.48 bitrate=   1.3kbits/s speed=0.0292x elapsed=0:01:59.11    \nframe=  421 fps=3.5 q=35.0 size=       1KiB time=00:00:03.50 bitrate=   1.3kbits/s speed=0.0292x elapsed=0:01:59.67    \nframe=  422 fps=3.5 q=37.0 size=       1KiB time=00:00:03.50 bitrate=   1.3kbits/s speed=0.0292x elapsed=0:02:00.24    \nframe=  425 fps=3.5 q=33.0 size=       1KiB time=00:00:03.53 bitrate=   1.3kbits/s speed=0.0292x elapsed=0:02:00.83    \nframe=  427 fps=3.5 q=36.0 size=       1KiB time=00:00:03.55 bitrate=   1.3kbits/s speed=0.0292x elapsed=0:02:01.41    \nframe=  429 fps=3.5 q=35.0 size=       1KiB time=00:00:03.56 bitrate=   1.3kbits/s speed=0.0292x elapsed=0:02:01.99    \nframe=  433 fps=3.5 q=28.0 size=       1KiB time=00:00:03.60 bitrate=   1.2kbits/s speed=0.0294x elapsed=0:02:02.56    \nframe=  435 fps=3.5 q=36.0 size=       1KiB time=00:00:03.61 bitrate=   1.2kbits/s speed=0.0294x elapsed=0:02:03.14    \nframe=  438 fps=3.5 q=37.0 size=       1KiB time=00:00:03.64 bitrate=   1.2kbits/s speed=0.0294x elapsed=0:02:03.71    \nframe=  441 fps=3.5 q=32.0 size=       1KiB time=00:00:03.66 bitrate=   1.2kbits/s speed=0.0295x elapsed=0:02:04.27    \nframe=  444 fps=3.6 q=33.0 size=       1KiB time=00:00:03.69 bitrate=   1.2kbits/s speed=0.0296x elapsed=0:02:04.84    \nframe=  447 fps=3.6 q=35.0 size=       1KiB time=00:00:03.71 bitrate=   1.2kbits/s speed=0.0296x elapsed=0:02:05.41    \nframe=  451 fps=3.6 q=36.0 size=       1KiB time=00:00:03.74 bitrate=   1.2kbits/s speed=0.0297x elapsed=0:02:05.97    \nframe=  453 fps=3.6 q=35.0 size=       1KiB time=00:00:03.76 bitrate=   1.2kbits/s speed=0.0298x elapsed=0:02:06.56    \nframe=  455 fps=3.6 q=36.0 size=       1KiB time=00:00:03.78 bitrate=   1.2kbits/s speed=0.0298x elapsed=0:02:07.12    \nframe=  457 fps=3.6 q=33.0 size=       1KiB time=00:00:03.80 bitrate=   1.2kbits/s speed=0.0298x elapsed=0:02:07.68    \nframe=  460 fps=3.6 q=37.0 size=       1KiB time=00:00:03.82 bitrate=   1.2kbits/s speed=0.0298x elapsed=0:02:08.25    \nframe=  462 fps=3.6 q=37.0 size=       1KiB time=00:00:03.84 bitrate=   1.2kbits/s speed=0.0298x elapsed=0:02:08.83    \nframe=  464 fps=3.6 q=33.0 size=       1KiB time=00:00:03.85 bitrate=   1.2kbits/s speed=0.0298x elapsed=0:02:09.39    \nframe=  466 fps=3.6 q=37.0 size=       1KiB time=00:00:03.87 bitrate=   1.2kbits/s speed=0.0298x elapsed=0:02:09.97    \nframe=  468 fps=3.6 q=37.0 size=       1KiB time=00:00:03.89 bitrate=   1.2kbits/s speed=0.0298x elapsed=0:02:10.57    \nframe=  469 fps=3.6 q=35.0 size=       1KiB time=00:00:03.90 bitrate=   1.1kbits/s speed=0.0297x elapsed=0:02:11.20    \nframe=  471 fps=3.6 q=36.0 size=       1KiB time=00:00:03.90 bitrate=   1.1kbits/s speed=0.0297x elapsed=0:02:11.81    \nframe=  473 fps=3.6 q=33.0 size=       1KiB time=00:00:03.92 bitrate=   1.1kbits/s speed=0.0296x elapsed=0:02:12.42    \nframe=  475 fps=3.6 q=36.0 size=       1KiB time=00:00:03.94 bitrate=   1.1kbits/s speed=0.0296x elapsed=0:02:13.01    \nframe=  476 fps=3.6 q=37.0 size=       1KiB time=00:00:03.95 bitrate=   1.1kbits/s speed=0.0296x elapsed=0:02:13.59    \nframe=  477 fps=3.6 q=35.0 size=       1KiB time=00:00:03.96 bitrate=   1.1kbits/s speed=0.0296x elapsed=0:02:14.16    \nframe=  478 fps=3.5 q=37.0 size=       1KiB time=00:00:03.97 bitrate=   1.1kbits/s speed=0.0295x elapsed=0:02:14.75    \nframe=  479 fps=3.5 q=36.0 size=       1KiB time=00:00:03.98 bitrate=   1.1kbits/s speed=0.0294x elapsed=0:02:15.32    \nframe=  480 fps=3.5 q=37.0 size=       1KiB time=00:00:03.99 bitrate=   1.1kbits/s speed=0.0294x elapsed=0:02:15.90    \nframe=  483 fps=3.5 q=36.0 size=       1KiB time=00:00:04.01 bitrate=   1.1kbits/s speed=0.0294x elapsed=0:02:16.49    \nframe=  485 fps=3.5 q=35.0 size=       1KiB time=00:00:04.03 bitrate=   1.1kbits/s speed=0.0294x elapsed=0:02:17.07    \nframe=  488 fps=3.5 q=37.0 size=       1KiB time=00:00:04.05 bitrate=   1.1kbits/s speed=0.0294x elapsed=0:02:17.68    \nframe=  490 fps=3.5 q=37.0 size=       1KiB time=00:00:04.07 bitrate=   1.1kbits/s speed=0.0295x elapsed=0:02:18.27    \nframe=  492 fps=3.5 q=37.0 size=       1KiB time=00:00:04.09 bitrate=   1.1kbits/s speed=0.0295x elapsed=0:02:18.85    \nframe=  492 fps=3.5 q=37.0 size=       1KiB time=00:00:04.09 bitrate=   1.1kbits/s speed=0.0293x elapsed=0:02:19.41    \nframe=  492 fps=3.5 q=37.0 size=       1KiB time=00:00:04.09 bitrate=   1.1kbits/s speed=0.0292x elapsed=0:02:19.97    \nframe=  492 fps=3.5 q=37.0 size=       1KiB time=00:00:04.09 bitrate=   1.1kbits/s speed=0.0291x elapsed=0:02:20.52    \nframe=  493 fps=3.5 q=35.0 size=       1KiB time=00:00:04.10 bitrate=   1.1kbits/s speed=0.0291x elapsed=0:02:21.07    \nframe=  494 fps=3.5 q=37.0 size=       1KiB time=00:00:04.10 bitrate=   1.1kbits/s speed=0.029x elapsed=0:02:21.63    \nframe=  497 fps=3.5 q=26.0 size=       1KiB time=00:00:04.13 bitrate=   1.1kbits/s speed=0.0291x elapsed=0:02:22.18    \nframe=  499 fps=3.5 q=36.0 size=       1KiB time=00:00:04.15 bitrate=   1.1kbits/s speed=0.0291x elapsed=0:02:22.75    \nframe=  501 fps=3.5 q=34.0 size=       1KiB time=00:00:04.16 bitrate=   1.1kbits/s speed=0.0291x elapsed=0:02:23.30    \nframe=  505 fps=3.5 q=31.0 size=       1KiB time=00:00:04.20 bitrate=   1.1kbits/s speed=0.0292x elapsed=0:02:23.87    \nframe=  509 fps=3.5 q=34.0 size=       1KiB time=00:00:04.23 bitrate=   1.1kbits/s speed=0.0293x elapsed=0:02:24.49    \nframe=  511 fps=3.5 q=36.0 size=       1KiB time=00:00:04.25 bitrate=   1.1kbits/s speed=0.0293x elapsed=0:02:25.06    \nframe=  513 fps=3.5 q=24.0 size=       1KiB time=00:00:04.26 bitrate=   1.0kbits/s speed=0.0293x elapsed=0:02:25.63    \nframe=  513 fps=3.5 q=24.0 size=       1KiB time=00:00:04.26 bitrate=   1.0kbits/s speed=0.0292x elapsed=0:02:26.20    \nframe=  513 fps=3.5 q=24.0 size=       1KiB time=00:00:04.26 bitrate=   1.0kbits/s speed=0.0291x elapsed=0:02:26.79    \nframe=  517 fps=3.5 q=35.0 size=       1KiB time=00:00:04.30 bitrate=   1.0kbits/s speed=0.0292x elapsed=0:02:27.36    \nframe=  519 fps=3.5 q=36.0 size=       1KiB time=00:00:04.31 bitrate=   1.0kbits/s speed=0.0292x elapsed=0:02:27.92    \nframe=  521 fps=3.5 q=32.0 size=       1KiB time=00:00:04.33 bitrate=   1.0kbits/s speed=0.0292x elapsed=0:02:28.49    \nframe=  523 fps=3.5 q=36.0 size=       1KiB time=00:00:04.33 bitrate=   1.0kbits/s speed=0.0291x elapsed=0:02:29.07    \nframe=  525 fps=3.5 q=35.0 size=       1KiB time=00:00:04.36 bitrate=   1.0kbits/s speed=0.0292x elapsed=0:02:29.65    \nframe=  529 fps=3.5 q=26.0 size=       1KiB time=00:00:04.40 bitrate=   1.0kbits/s speed=0.0293x elapsed=0:02:30.20    \nframe=  529 fps=3.5 q=26.0 size=       1KiB time=00:00:04.40 bitrate=   1.0kbits/s speed=0.0292x elapsed=0:02:30.76    \nframe=  529 fps=3.5 q=26.0 size=       1KiB time=00:00:04.40 bitrate=   1.0kbits/s speed=0.0291x elapsed=0:02:31.34    \nframe=  533 fps=3.5 q=35.0 size=       1KiB time=00:00:04.43 bitrate=   1.0kbits/s speed=0.0292x elapsed=0:02:31.90    \nframe=  535 fps=3.5 q=36.0 size=       1KiB time=00:00:04.45 bitrate=   1.0kbits/s speed=0.0292x elapsed=0:02:32.48    \nframe=  537 fps=3.5 q=32.0 size=       1KiB time=00:00:04.46 bitrate=   1.0kbits/s speed=0.0292x elapsed=0:02:33.04    \nframe=  537 fps=3.5 q=32.0 size=       1KiB time=00:00:04.46 bitrate=   1.0kbits/s speed=0.0291x elapsed=0:02:33.60    \nframe=  541 fps=3.5 q=35.0 size=       1KiB time=00:00:04.50 bitrate=   1.0kbits/s speed=0.0292x elapsed=0:02:34.16    \nframe=  545 fps=3.5 q=27.0 size=       1KiB time=00:00:04.53 bitrate=   1.0kbits/s speed=0.0293x elapsed=0:02:34.72    \nframe=  545 fps=3.5 q=27.0 size=       1KiB time=00:00:04.53 bitrate=   1.0kbits/s speed=0.0292x elapsed=0:02:35.28    \nframe=  545 fps=3.5 q=27.0 size=       1KiB time=00:00:04.53 bitrate=   1.0kbits/s speed=0.0291x elapsed=0:02:35.85    \nframe=  545 fps=3.5 q=27.0 size=       1KiB time=00:00:04.53 bitrate=   1.0kbits/s speed=0.029x elapsed=0:02:36.42    \nframe=  549 fps=3.5 q=35.0 size=       1KiB time=00:00:04.56 bitrate=   1.0kbits/s speed=0.0291x elapsed=0:02:36.97    \nframe=  551 fps=3.5 q=36.0 size=       1KiB time=00:00:04.58 bitrate=   1.0kbits/s speed=0.0291x elapsed=0:02:37.54    \nframe=  553 fps=3.5 q=32.0 size=       1KiB time=00:00:04.60 bitrate=   1.0kbits/s speed=0.0291x elapsed=0:02:38.13    \nframe=  553 fps=3.5 q=32.0 size=       1KiB time=00:00:04.60 bitrate=   1.0kbits/s speed=0.029x elapsed=0:02:38.69    \nframe=  557 fps=3.5 q=34.0 size=       1KiB time=00:00:04.63 bitrate=   1.0kbits/s speed=0.0291x elapsed=0:02:39.29    \nframe=  557 fps=3.5 q=34.0 size=       1KiB time=00:00:04.63 bitrate=   1.0kbits/s speed=0.029x elapsed=0:02:39.87    \nframe=  559 fps=3.5 q=35.0 size=       1KiB time=00:00:04.65 bitrate=   1.0kbits/s speed=0.029x elapsed=0:02:40.45    \nframe=  561 fps=3.5 q=27.0 size=       1KiB time=00:00:04.66 bitrate=   1.0kbits/s speed=0.029x elapsed=0:02:41.04    \nframe=  561 fps=3.5 q=27.0 size=       1KiB time=00:00:04.66 bitrate=   1.0kbits/s speed=0.0289x elapsed=0:02:41.62    \nframe=  561 fps=3.5 q=27.0 size=       1KiB time=00:00:04.66 bitrate=   1.0kbits/s speed=0.0288x elapsed=0:02:42.20    \nframe=  561 fps=3.4 q=27.0 size=       1KiB time=00:00:04.66 bitrate=   1.0kbits/s speed=0.0287x elapsed=0:02:42.78    \nframe=  561 fps=3.4 q=27.0 size=       1KiB time=00:00:04.66 bitrate=   1.0kbits/s speed=0.0286x elapsed=0:02:43.34    \nframe=  561 fps=3.4 q=27.0 size=       1KiB time=00:00:04.66 bitrate=   1.0kbits/s speed=0.0285x elapsed=0:02:43.91    \nframe=  563 fps=3.4 q=35.0 size=       1KiB time=00:00:04.68 bitrate=   1.0kbits/s speed=0.0285x elapsed=0:02:44.49    \nframe=  565 fps=3.4 q=34.0 size=       1KiB time=00:00:04.70 bitrate=   1.0kbits/s speed=0.0285x elapsed=0:02:45.05    \nframe=  569 fps=3.4 q=31.0 size=       1KiB time=00:00:04.73 bitrate=   0.9kbits/s speed=0.0286x elapsed=0:02:45.61    \nframe=  569 fps=3.4 q=31.0 size=       1KiB time=00:00:04.73 bitrate=   0.9kbits/s speed=0.0285x elapsed=0:02:46.18    \nframe=  573 fps=3.4 q=34.0 size=       1KiB time=00:00:04.76 bitrate=   0.9kbits/s speed=0.0286x elapsed=0:02:46.73    \nframe=  575 fps=3.4 q=35.0 size=       1KiB time=00:00:04.78 bitrate=   0.9kbits/s speed=0.0286x elapsed=0:02:47.28    \nframe=  577 fps=3.4 q=25.0 size=       1KiB time=00:00:04.80 bitrate=   0.9kbits/s speed=0.0286x elapsed=0:02:47.83    \nframe=  581 fps=3.4 q=33.0 size=       1KiB time=00:00:04.81 bitrate=   0.9kbits/s speed=0.0286x elapsed=0:02:48.41    \nframe=  581 fps=3.4 q=33.0 size=       1KiB time=00:00:04.83 bitrate=   0.9kbits/s speed=0.0286x elapsed=0:02:48.97    \nframe=  585 fps=3.5 q=32.0 size=       1KiB time=00:00:04.86 bitrate=   0.9kbits/s speed=0.0287x elapsed=0:02:49.53    \nframe=  585 fps=3.4 q=32.0 size=       1KiB time=00:00:04.86 bitrate=   0.9kbits/s speed=0.0286x elapsed=0:02:50.09    \nframe=  587 fps=3.4 q=35.0 size=       1KiB time=00:00:04.88 bitrate=   0.9kbits/s speed=0.0286x elapsed=0:02:50.64    \nframe=  589 fps=3.4 q=36.0 size=       1KiB time=00:00:04.90 bitrate=   0.9kbits/s speed=0.0286x elapsed=0:02:51.19    \nframe=  591 fps=3.4 q=35.0 size=       1KiB time=00:00:04.91 bitrate=   0.9kbits/s speed=0.0286x elapsed=0:02:51.76    \n[out#0/matroska @ 000002044db990c0] video:236KiB audio:0KiB subtitle:0KiB other streams:0KiB global headers:0KiB muxing overhead: 1.324380%\nframe=  600 fps=3.5 q=44.0 Lsize=     239KiB time=00:00:04.99 bitrate= 392.2kbits/s speed=0.0291x elapsed=0:02:51.82    \n",
  "seconds": 173.38182759284973,
  "probe_out": {}
}